<svg xmlns="http://www.w3.org/2000/svg" xmlns:xlink="http://www.w3.org/1999/xlink" id="aab8be96-27f1-432f-83d4-2030a81904c0" data-name="Ebene 1" viewBox="0 0 900 380"><defs><style>.b23220a8-6b27-4b7e-afac-ab8c1f85fb8b{fill:#fff}.ad93af65-300a-4efc-b22d-5eb8d19b66dc{fill:url(#bc2c5ea4-5c1b-49d3-8a56-bdc712f1fcf1)}.b9e1c0c0-5738-4162-b255-a5f9efd0ff1a{fill:url(#e69e1798-327b-4834-b8e5-538d242a98bc)}.b0071af5-e188-4e71-93fc-e4d280eafcbb{fill:url(#bcf574a3-18b7-45a9-b434-aaee2b70d666)}.afd72d6f-8505-4e40-a5ab-a88e83d22fea{fill:url(#fec93f4e-4b79-4a22-a45a-1d0179c8483a)}</style><linearGradient id="bc2c5ea4-5c1b-49d3-8a56-bdc712f1fcf1" x1="672.84" x2="765.71" y1="71.26" y2="71.26" gradientUnits="userSpaceOnUse"><stop offset="0" stop-color="#fff"/><stop offset=".35" stop-color="#fcfcfc"/><stop offset=".56" stop-color="#f4f4f4"/><stop offset=".73" stop-color="#e6e6e6"/><stop offset=".89" stop-color="#d2d2d2"/><stop offset="1" stop-color="#bdbdbd"/></linearGradient><linearGradient id="e69e1798-327b-4834-b8e5-538d242a98bc" x1="802.37" x2="854.41" y1="287.3" y2="323.73" gradientUnits="userSpaceOnUse"><stop offset="0" stop-color="#aaaaa9"/><stop offset=".13" stop-color="#a5a5a4" stop-opacity=".97"/><stop offset=".28" stop-color="#959594" stop-opacity=".88"/><stop offset=".46" stop-color="#7c7c7b" stop-opacity=".73"/><stop offset=".65" stop-color="#585858" stop-opacity=".52"/><stop offset=".84" stop-color="#2b2b2b" stop-opacity=".25"/><stop offset="1" stop-opacity="0"/></linearGradient><linearGradient id="bcf574a3-18b7-45a9-b434-aaee2b70d666" x1="773.19" x2="858.64" y1="148.32" y2="148.32" xlink:href="#e69e1798-327b-4834-b8e5-538d242a98bc"/><linearGradient id="fec93f4e-4b79-4a22-a45a-1d0179c8483a" x1="673.78" x2="765.71" y1="225.61" y2="225.61" xlink:href="#bc2c5ea4-5c1b-49d3-8a56-bdc712f1fcf1"/></defs><path d="M292.93,41.47V327.23a6.11,6.11,0,0,1-1.77,4.34l0,0a5.44,5.44,0,0,1-1.72,1.2,5.67,5.67,0,0,1-2.53.58H248.27a6.09,6.09,0,0,1-6-6.14V41.47a6.1,6.1,0,0,1,6-6.15h38.62A6.09,6.09,0,0,1,292.93,41.47Z" class="b23220a8-6b27-4b7e-afac-ab8c1f85fb8b"/><path d="M464.65,290.61H390.53l-.36,0a6,6,0,0,1-5.29-4.85l-.05-244.43a6,6,0,0,0-6-6H340.17a6,6,0,0,0-6,6V327.37a6,6,0,0,0,6,6l124.48.08a6,6,0,0,0,6-6v-30.8A6,6,0,0,0,464.65,290.61Z" class="b23220a8-6b27-4b7e-afac-ab8c1f85fb8b"/><path d="M211.47,324.51,133.23,182a6,6,0,0,1,0-5.78l72.6-132.12a6,6,0,0,0-5.29-8.85H156.73a6.06,6.06,0,0,0-5.29,3.09L92.06,146.45V41.31a6,6,0,0,0-6-6H47.4a6,6,0,0,0-6,6V327.38a6,6,0,0,0,6,6H86a6,6,0,0,0,6-6V261.43l-18-82.27,83,151.17a6,6,0,0,0,5.28,3.09h43.81a6,6,0,0,0,5.28-8.91Z" class="b23220a8-6b27-4b7e-afac-ab8c1f85fb8b"/><path d="M610.61,41.31v30.9a6,6,0,0,1-6,6l-74.82,0L553.53,95a3,3,0,0,1,1.27,2.45v230a6,6,0,0,1-6,6h-38a6,6,0,0,1-6-6V84.26a6,6,0,0,0-5.4-6l-.36,0H455a6,6,0,0,1-6-6V41.31a6,6,0,0,1,6-6H604.57A6,6,0,0,1,610.61,41.31Z" class="b23220a8-6b27-4b7e-afac-ab8c1f85fb8b"/><path d="M765.71,69,717.77,35.47H680.26c-4.09,0-7.42,2.75-7.42,6.14V80.05l38.57,27Z" class="ad93af65-300a-4efc-b22d-5eb8d19b66dc"/><path d="M773.19,304.88l41.47,29h36.48a8.26,8.26,0,0,0,3.1-.58,6.87,6.87,0,0,0,2.12-1.2l0,0a5.62,5.62,0,0,0,2.18-4.34V288.62l-31.07-21.76Z" class="b9e1c0c0-5738-4162-b255-a5f9efd0ff1a"/><path d="M858.62,40.33V80L690.72,197.6a46.93,46.93,0,0,0-17.94,36.92V134.11l141-98.73h37.8C855.09,35.47,858,37.57,858.62,40.33Z" class="b23220a8-6b27-4b7e-afac-ab8c1f85fb8b"/><path d="M858.62,134.09,827.49,112.3l-54.3,38,48.6,34h0L839.49,172A47,47,0,0,0,858.62,134.09Z" class="b0071af5-e188-4e71-93fc-e4d280eafcbb"/><path d="M765.71,223.61l-48.6-34-26.39,18.48a47.11,47.11,0,0,0-16.94,27.22l37.63,26.35Z" class="afd72d6f-8505-4e40-a5ab-a88e83d22fea"/><path d="M839.58,171.88l-.09.07L672.78,288.68v76.05L858.56,235.46l.06-101.37A47,47,0,0,1,839.58,171.88Z" class="b23220a8-6b27-4b7e-afac-ab8c1f85fb8b"/></svg>