<svg xmlns="http://www.w3.org/2000/svg" xmlns:xlink="http://www.w3.org/1999/xlink" id="bf885f70-1e78-4ace-bae7-f51f6770f8f9" x="0" y="0" version="1.1" viewBox="0 0 512 512" style="enable-background:new 0 0 512 512" xml:space="preserve"><style type="text/css">.st0{stroke-linecap:round}.st0,.st1{fill:none;stroke:#f05a28;stroke-width:8;stroke-miterlimit:10}.st2{fill:url(#SVGID_1_)}.st4{fill:#8c175b}</style><polyline points="211 101.9 142.4 116.4 203.3 405.7 328.4 379.3" class="st0"/><polyline points="132.6 150.8 73.3 179 192.1 428.7 263.5 393.3" class="st0"/><polygon points="373 83.3 224.6 83.3 224.6 379 438.7 379 438.7 155.1" class="st1"/><g><linearGradient id="SVGID_1_" x1="301.701" x2="331.65" y1="-293.285" y2="-293.285" gradientTransform="matrix(1 0 0 1 0 487.8898)" gradientUnits="userSpaceOnUse"><stop offset="0" style="stop-color:#f96943"/><stop offset=".45" style="stop-color:#f46640"/><stop offset="1" style="stop-color:#e55d38"/></linearGradient><path d="M331.6,193.9l-15.4-10.9h-12.1c-1.2-0.1-2.3,0.8-2.4,2v12.4l12.5,8.7L331.6,193.9z" class="st2"/><linearGradient id="SVGID_00000008834988843385120580000004412060821203418532_" x1="334.094" x2="361.65" y1="-219.419" y2="-219.419" gradientTransform="matrix(1 0 0 1 0 487.8898)" gradientUnits="userSpaceOnUse"><stop offset="0" style="stop-color:#ce4e2c"/><stop offset="1" style="stop-color:#ce4e2c"/></linearGradient><path style="fill:url(#SVGID_00000008834988843385120580000004412060821203418532_)" d="M334.1,269.9l13.4,9.4h11.8 c0.3,0,0.7-0.1,1-0.2c0.3-0.1,0.5-0.3,0.7-0.4l0,0c0.4-0.3,0.7-0.8,0.7-1.4v-12.6l-10-7L334.1,269.9z"/><path d="M361.7,184.7v12.8l-54.2,37.9c-3.6,2.9-5.8,7.2-5.8,11.9v-32.4l45.5-31.9h12.2 C360.4,183.1,361.3,183.7,361.7,184.7z" class="st4"/><linearGradient id="SVGID_00000163035416824465648390000003850920194142227609_" x1="334.094" x2="361.616" y1="-268.422" y2="-268.422" gradientTransform="matrix(1 0 0 1 0 487.8898)" gradientUnits="userSpaceOnUse"><stop offset="0" style="stop-color:#e05935"/><stop offset="1" style="stop-color:#ce4e2c"/></linearGradient><path style="fill:url(#SVGID_00000163035416824465648390000003850920194142227609_)" d="M349.8,231.1l5.7-4l0,0 c3.9-2.9,6.2-7.4,6.2-12.2l-10-7l-17.5,12.3L349.8,231.1z"/><linearGradient id="SVGID_00000095303675863598096370000010455471447390238888_" x1="301.987" x2="331.65" y1="-243.478" y2="-243.478" gradientTransform="matrix(1 0 0 1 0 487.8898)" gradientUnits="userSpaceOnUse"><stop offset="0" style="stop-color:#f96943"/><stop offset=".46" style="stop-color:#f46640"/><stop offset="1" style="stop-color:#e55c38"/></linearGradient><path style="fill:url(#SVGID_00000095303675863598096370000010455471447390238888_)" d="M331.6,243.7l-15.7-11l-8.5,6 c-2.8,2.2-4.7,5.3-5.5,8.8l12.1,8.5L331.6,243.7z"/><path d="M355.5,227.1L355.5,227.1l-53.8,37.7v24.5l59.9-42v-32.4C361.7,219.7,359.4,224.2,355.5,227.1z" class="st4"/></g></svg>